<svg width="60" height="60" viewBox="0 0 60 60" fill="none" xmlns="http://www.w3.org/2000/svg">
<path d="M28.75 3.75C35.3804 3.75 41.7393 6.38392 46.4277 11.0723C51.1161 15.7607 53.75 22.1196 53.75 28.75C53.75 35.3804 51.1161 41.7393 46.4277 46.4277C41.7393 51.1161 35.3804 53.75 28.75 53.75C22.1196 53.75 15.7607 51.1161 11.0723 46.4277C6.38392 41.7393 3.75 35.3804 3.75 28.75C3.75 22.1196 6.38392 15.7607 11.0723 11.0723C15.7607 6.38392 22.1196 3.75 28.75 3.75ZM25.6357 33.6821L20.0821 28.125C19.883 27.9259 19.6467 27.768 19.3866 27.6602C19.1264 27.5525 18.8476 27.497 18.5661 27.497C18.2845 27.497 18.0057 27.5525 17.7456 27.6602C17.4855 27.768 17.2491 27.9259 17.05 28.125C16.6479 28.5271 16.422 29.0724 16.422 29.6411C16.422 30.2097 16.6479 30.7551 17.05 31.1571L24.1214 38.2286C24.32 38.4287 24.5561 38.5875 24.8163 38.6959C25.0765 38.8042 25.3556 38.86 25.6375 38.86C25.9194 38.86 26.1985 38.8042 26.4587 38.6959C26.7189 38.5875 26.955 38.4287 27.1536 38.2286L41.7964 23.5821C41.9982 23.3839 42.1587 23.1476 42.2687 22.887C42.3787 22.6264 42.436 22.3466 42.4373 22.0637C42.4386 21.7809 42.3839 21.5005 42.2763 21.2389C42.1688 20.9773 42.0105 20.7396 41.8106 20.5394C41.6107 20.3393 41.3731 20.1807 41.1116 20.0728C40.8501 19.965 40.5699 19.9099 40.287 19.9109C40.0042 19.9119 39.7243 19.9689 39.4635 20.0786C39.2028 20.1883 38.9664 20.3485 38.7679 20.55L25.6357 33.6821Z" fill="#4BB609"/>
</svg>
